<?xml version="1.0" standalone="no"?>
<!DOCTYPE svg PUBLIC "-//W3C//DTD SVG 20010904//EN"
 "http://www.w3.org/TR/2001/REC-SVG-20010904/DTD/svg10.dtd">
<svg version="1.0" xmlns="http://www.w3.org/2000/svg"
 width="259.000000pt" height="259.000000pt" viewBox="0 0 259.000000 259.000000"
 preserveAspectRatio="xMidYMid meet">
<metadata>
Created by potrace 1.11, written by Peter Selinger 2001-2013
</metadata>
<g transform="translate(0.000000,259.000000) scale(0.100000,-0.100000)"
fill="#000000" stroke="none">
<path d="M1075 2511 c-441 -81 -806 -393 -947 -811 -54 -158 -63 -221 -62
-420 1 -217 39 -368 139 -557 145 -273 400 -491 692 -589 43 -14 89 -28 103
-30 14 -3 31 -7 38 -9 37 -13 132 -20 272 -19 134 0 169 4 261 27 164 42 290
97 414 183 38 26 74 52 81 58 151 143 196 193 259 291 77 122 128 243 165 395
20 79 24 123 24 260 1 103 -4 191 -13 235 -84 425 -367 763 -775 925 -41 16
-85 32 -98 35 -13 2 -43 9 -68 15 -25 5 -56 12 -70 15 -14 4 -90 8 -170 10
-112 4 -167 1 -245 -14z m380 -132 c396 -55 737 -342 871 -733 48 -141 70
-349 50 -476 -4 -25 -10 -58 -12 -75 -30 -195 -143 -405 -303 -566 -205 -206
-476 -320 -761 -321 -189 0 -331 33 -497 115 -222 110 -415 311 -513 537 -262
599 52 1286 677 1484 160 50 306 61 488 35z"/>
<path d="M1145 2200 c-297 -46 -572 -263 -692 -545 -56 -132 -68 -195 -67
-360 1 -133 4 -160 28 -239 49 -163 112 -271 225 -389 290 -302 749 -363 1115
-148 87 50 231 184 285 264 113 168 163 343 156 552 -7 230 -88 421 -251 594
-37 40 -104 96 -148 126 -76 50 -208 111 -262 121 -13 2 -36 9 -51 15 -38 14
-264 20 -338 9z m241 -134 c202 -19 416 -149 543 -329 13 -19 13 -20 -5 -13
-49 19 -164 37 -214 33 -50 -4 -61 -1 -120 35 -202 121 -439 112 -638 -24 -42
-29 -47 -30 -163 -30 -66 0 -123 3 -126 6 -10 9 75 103 140 154 116 92 226
141 377 166 66 12 98 12 206 2z m37 -347 c34 -11 65 -24 69 -27 4 -4 -6 -27
-22 -50 -32 -49 -44 -105 -37 -175 12 -102 80 -169 212 -209 38 -12 73 -26 77
-31 11 -18 -49 -164 -78 -188 -14 -11 -56 6 -111 47 -17 13 -36 24 -41 24 -11
0 -92 -95 -92 -108 0 -5 25 -27 55 -47 l55 -38 -26 -13 c-54 -29 -129 -44
-203 -42 -62 1 -66 2 -24 5 l52 4 -105 145 c-58 80 -107 151 -110 158 -3 8 5
16 21 20 45 11 119 94 135 151 20 73 17 182 -8 238 -24 54 -44 77 -91 105
l-33 20 48 15 c74 22 183 21 257 -4z m482 -150 l60 -30 21 27 22 26 12 -38 c7
-22 13 -41 13 -44 0 -3 3 -15 8 -28 5 -13 12 -53 15 -90 8 -73 8 -75 5 -142
l-2 -45 -19 36 c-23 44 -33 52 -111 94 l-62 33 -18 71 c-10 39 -30 95 -44 123
l-25 51 32 -7 c18 -3 60 -20 93 -37z m-1118 19 c-3 -7 -18 -42 -33 -78 -14
-36 -27 -66 -28 -67 -1 -2 1 135 3 150 1 4 15 7 32 7 21 0 29 -4 26 -12z m272
-20 c71 -44 64 -198 -11 -243 -23 -13 -58 -20 -115 -23 l-83 -5 0 30 c0 71 53
204 103 257 12 14 73 5 106 -16z m589 -9 c26 -41 53 -97 61 -127 9 -30 8 -31
-16 -21 -71 27 -102 58 -103 102 0 59 33 86 58 46z m-1080 -396 l-3 -138 -23
93 c-30 123 -31 248 -3 361 12 46 22 87 23 90 5 12 8 -273 6 -406z m1342 -53
c0 -38 -40 -84 -84 -97 -20 -6 -36 -9 -36 -7 0 3 8 21 19 42 10 20 24 55 30
77 7 22 15 47 17 55 8 24 54 -36 54 -70z m-935 -47 c39 -53 79 -110 89 -126
19 -29 19 -29 -33 8 -57 42 -120 118 -145 178 -14 34 -14 37 2 37 11 0 45 -38
87 -97z m-239 79 c-2 -4 12 -44 33 -88 150 -318 542 -427 840 -234 59 38 65
40 144 40 54 1 101 7 137 20 30 10 56 17 58 16 1 -2 -14 -25 -34 -52 -302
-404 -895 -423 -1217 -39 l-50 60 39 5 39 5 1 135 c2 145 1 140 10 140 3 0 3
-4 0 -8z"/>
</g>
</svg>
