<?xml version="1.0" standalone="no"?>
<!DOCTYPE svg PUBLIC "-//W3C//DTD SVG 20010904//EN"
 "http://www.w3.org/TR/2001/REC-SVG-20010904/DTD/svg10.dtd">
<svg version="1.0" xmlns="http://www.w3.org/2000/svg"
 width="271.000000pt" height="271.000000pt" viewBox="0 0 271.000000 271.000000"
 preserveAspectRatio="xMidYMid meet">
<metadata>
Created by potrace 1.11, written by Peter Selinger 2001-2013
</metadata>
<g transform="translate(0.000000,271.000000) scale(0.100000,-0.100000)"
fill="#000000" stroke="none">
<path d="M1200 2582 c-14 -1 -59 -10 -100 -19 -41 -9 -79 -17 -85 -19 -43 -9
-172 -61 -240 -98 -323 -171 -551 -475 -631 -839 -23 -101 -27 -330 -8 -442
32 -199 99 -356 231 -545 42 -59 148 -167 228 -230 137 -110 321 -195 506
-236 153 -34 417 -25 575 19 377 105 689 391 828 759 51 138 70 242 70 408 1
166 -3 211 -30 317 -120 478 -524 846 -1010 918 -95 14 -251 17 -334 7z m345
-148 c229 -43 413 -140 576 -303 213 -213 321 -477 321 -778 -2 -546 -400
-995 -957 -1079 -192 -29 -463 21 -643 118 -653 353 -785 1219 -263 1739 260
259 615 370 966 303z"/>
<path d="M1180 2255 c-342 -70 -608 -315 -705 -650 -27 -91 -29 -113 -29 -250
1 -133 4 -160 27 -238 35 -114 59 -165 123 -263 96 -146 269 -284 429 -344 33
-12 68 -23 78 -25 9 -2 21 -6 26 -10 32 -19 290 -27 384 -12 167 27 367 136
491 268 102 107 162 207 212 350 31 89 39 149 39 294 -1 187 -41 323 -141 478
-122 188 -299 317 -534 387 -92 28 -298 36 -400 15z m305 -135 c28 -6 59 -12
70 -14 123 -26 300 -141 395 -259 27 -34 48 -62 47 -63 -1 -1 -35 6 -74 17
-45 11 -99 17 -140 15 -63 -2 -73 0 -133 36 -87 52 -178 79 -275 83 -130 6
-232 -23 -345 -96 l-63 -40 -123 -2 c-68 -1 -124 1 -124 4 0 25 120 147 195
198 168 113 384 159 570 121z m-2 -341 c76 -25 85 -33 63 -54 -31 -32 -49 -80
-54 -147 -9 -131 60 -215 215 -261 40 -11 74 -26 76 -32 7 -16 -41 -137 -66
-169 l-23 -28 -40 20 c-21 11 -54 32 -72 45 l-34 26 -44 -55 c-24 -29 -44 -58
-44 -64 0 -5 22 -25 50 -42 27 -18 50 -36 50 -39 0 -10 -61 -37 -110 -48 -25
-6 -76 -10 -115 -9 -55 1 -60 2 -22 5 26 2 47 7 47 10 0 3 -45 69 -101 145
-55 77 -103 146 -105 153 -3 7 5 15 21 19 45 11 119 94 135 151 20 71 16 183
-8 239 -24 53 -44 76 -91 104 l-34 21 49 15 c73 22 183 20 257 -5z m482 -150
l60 -30 22 27 21 27 21 -69 c28 -96 38 -190 32 -294 -2 -23 -3 -23 -21 11 -23
44 -36 55 -112 93 l-60 31 -18 72 c-10 39 -31 94 -45 123 l-27 53 34 -7 c18
-3 60 -20 93 -37z m-1118 19 c-3 -7 -18 -42 -33 -78 -14 -36 -27 -66 -28 -67
-2 -2 1 149 3 155 1 1 15 2 32 2 21 0 29 -4 26 -12z m257 -13 c40 -19 57 -46
63 -106 6 -60 -24 -129 -65 -149 -15 -7 -65 -15 -111 -18 l-83 -5 5 54 c6 63
35 142 73 199 30 45 61 52 118 25z m614 -30 c23 -36 65 -135 60 -141 -8 -7
-95 39 -110 59 -20 25 -23 69 -8 98 15 28 32 23 58 -16z m-1089 -247 l0 -273
-19 55 c-41 118 -43 281 -5 423 8 32 15 60 15 62 0 3 2 5 5 5 3 0 5 -123 4
-272z m1341 -185 c0 -30 -28 -80 -49 -89 -31 -12 -71 -23 -71 -18 0 3 8 21 19
42 10 20 26 61 36 91 l18 55 23 -28 c13 -15 24 -39 24 -53z m-924 -65 c93
-133 96 -138 58 -114 -62 41 -129 121 -157 189 -15 35 -15 37 2 37 10 0 47
-42 97 -112z m-232 40 c9 -26 34 -73 55 -105 178 -271 544 -340 814 -154 40
27 52 30 133 32 58 1 106 8 138 20 28 10 51 17 53 15 2 -1 -19 -33 -47 -69
-114 -151 -307 -263 -500 -293 -111 -16 -265 0 -380 41 -122 43 -262 148 -344
257 l-27 37 38 3 38 3 0 137 c0 75 3 134 6 130 3 -4 13 -28 23 -54z"/>
</g>
</svg>
